<mxfile host="app.diagrams.net" agent="Mozilla/5.0 (Windows NT 10.0; Win64; x64) AppleWebKit/537.36 (KHTML, like Gecko) Chrome/129.0.0.0 Safari/537.36" version="24.7.16">
  <diagram name="Page-1" id="h1PZ9immQGWeOA2oRc8F">
    <mxGraphModel dx="3676" dy="643" grid="1" gridSize="10" guides="1" tooltips="1" connect="1" arrows="1" fold="1" page="1" pageScale="1" pageWidth="827" pageHeight="1169" math="0" shadow="0">
      <root>
        <mxCell id="0" />
        <mxCell id="1" parent="0" />
        <mxCell id="KXnW2y_FUQfaZxIY8iih-1" value="" style="rounded=0;whiteSpace=wrap;html=1;shadow=0;labelBackgroundColor=none;strokeColor=none;strokeWidth=3;fillColor=#e8edf0;fontSize=60;fontColor=#2F5B7C;align=left;" vertex="1" parent="1">
          <mxGeometry x="-2290" y="32" width="2250" height="1598" as="geometry" />
        </mxCell>
        <mxCell id="KXnW2y_FUQfaZxIY8iih-2" value="&lt;div style=&quot;font-size: 26px&quot;&gt;&lt;font style=&quot;font-size: 26px&quot;&gt;Customer Relationships&lt;/font&gt;&lt;/div&gt;&lt;div&gt;&lt;br&gt;&lt;/div&gt;&lt;div&gt;What type of relationship does each of our Customer&lt;/div&gt;&lt;div&gt;Segments expect us to establish and maintain with them?&lt;/div&gt;&lt;div&gt;Which ones have we established?&lt;/div&gt;&lt;div&gt;How are they integrated with the rest of our business model?&lt;/div&gt;&lt;div&gt;How costly are they?&lt;/div&gt;&lt;div style=&quot;font-size: 10px&quot;&gt;&lt;font style=&quot;font-size: 10px&quot;&gt;&lt;br&gt;&lt;/font&gt;&lt;/div&gt;&lt;div style=&quot;font-size: 10px&quot;&gt;&lt;font style=&quot;font-size: 10px&quot;&gt;&lt;br&gt;&lt;/font&gt;&lt;/div&gt;&lt;div style=&quot;font-size: 10px&quot;&gt;&lt;font style=&quot;font-size: 10px&quot;&gt;&lt;li&gt;&lt;strong&gt;Self-service&lt;/strong&gt;: An intuitive app interface with a setup wizard for users to personalize their automation profiles.&lt;/li&gt;&lt;li&gt;&lt;strong&gt;Community Forums&lt;/strong&gt;: Online forums or social media groups where users share their experiences and ideas.&lt;/li&gt;&lt;li&gt;&lt;strong&gt;Customer Support&lt;/strong&gt;: 24/7 technical assistance via chat or phone.&lt;/li&gt;&lt;li&gt;&lt;strong&gt;User Feedback Loops&lt;/strong&gt;: Regular surveys or in-app prompts to gather feedback for product refinement.&lt;/li&gt;&lt;/font&gt;&lt;/div&gt;" style="rounded=0;whiteSpace=wrap;html=1;shadow=0;labelBackgroundColor=none;strokeColor=#e8edf0;strokeWidth=5;fillColor=#ffffff;fontSize=12;fontColor=#2F5B7C;align=left;verticalAlign=top;spacing=30;" vertex="1" parent="1">
          <mxGeometry x="-950" y="220" width="420" height="450" as="geometry" />
        </mxCell>
        <mxCell id="KXnW2y_FUQfaZxIY8iih-3" value="&lt;font&gt;&lt;font style=&quot;font-size: 26px&quot;&gt;Key Partners&lt;/font&gt;&lt;br&gt;&lt;/font&gt;&lt;font style=&quot;font-size: 12px&quot;&gt;&lt;br style=&quot;font-size: 12px&quot;&gt;&lt;font style=&quot;font-size: 12px&quot;&gt;Who are our Key Partners?&lt;br style=&quot;font-size: 12px&quot;&gt;Who are our key suppliers?&lt;br style=&quot;font-size: 12px&quot;&gt;Which Key Resources are we acuariring from partners?&lt;br style=&quot;font-size: 12px&quot;&gt;&lt;/font&gt;&lt;br style=&quot;font-size: 12px&quot;&gt;&lt;/font&gt;&lt;div style=&quot;font-size: 10px&quot;&gt;&lt;br&gt;&lt;/div&gt;&lt;div style=&quot;font-size: 10px&quot;&gt;&lt;font style=&quot;font-size: 10px&quot;&gt;&lt;li&gt;&lt;strong&gt;Smart Device Manufacturers&lt;/strong&gt; (Google, Amazon, Apple, etc.)&lt;/li&gt;&lt;li&gt;&lt;strong&gt;AI Development Partners&lt;/strong&gt; (for advanced mood/behavior analysis)&lt;/li&gt;&lt;li&gt;&lt;strong&gt;Raspberry Pi&lt;/strong&gt; and other hardware providers&lt;/li&gt;&lt;li&gt;&lt;strong&gt;Cloud Service Providers&lt;/strong&gt; (AWS, Google Cloud for data processing and storage)&lt;/li&gt;&lt;li&gt;&lt;strong&gt;Home Improvement Stores/Distributors&lt;/strong&gt;&lt;/li&gt;&lt;li&gt;&lt;strong&gt;Energy Providers&lt;/strong&gt; (for integrating energy-saving solutions)&lt;/li&gt;&lt;li&gt;&lt;strong&gt;IoT Security Firms&lt;/strong&gt; (to address privacy and security concerns)&lt;/li&gt;&lt;/font&gt;&lt;/div&gt;&lt;div style=&quot;font-size: 12px&quot;&gt;&lt;br style=&quot;font-size: 12px&quot;&gt;&lt;/div&gt;" style="rounded=0;whiteSpace=wrap;html=1;shadow=0;labelBackgroundColor=none;strokeColor=#e8edf0;strokeWidth=5;fillColor=#ffffff;fontSize=12;fontColor=#2F5B7C;align=left;verticalAlign=top;spacing=30;" vertex="1" parent="1">
          <mxGeometry x="-2210" y="220" width="420" height="910" as="geometry" />
        </mxCell>
        <mxCell id="KXnW2y_FUQfaZxIY8iih-4" value="&lt;font&gt;&lt;font style=&quot;font-size: 26px&quot;&gt;Key Activities&lt;/font&gt;&lt;br style=&quot;font-size: 12px&quot;&gt;&lt;/font&gt;&lt;font&gt;&lt;br style=&quot;font-size: 12px&quot;&gt;&lt;div&gt;What Key Activities do our Value Propositions require?&lt;/div&gt;&lt;div&gt;Our Distribution Channels?&lt;/div&gt;&lt;div&gt;Customer Relationships?&lt;/div&gt;&lt;div&gt;Revenue streams?&lt;/div&gt;&lt;/font&gt;&lt;div style=&quot;font-size: 10px&quot;&gt;&lt;div&gt;&lt;br&gt;&lt;/div&gt;&lt;div&gt;&lt;br&gt;&lt;/div&gt;&lt;div&gt;&lt;li&gt;&lt;strong&gt;Product Development&lt;/strong&gt;: Developing smart home automation software and AI mood/behavior analysis.&lt;/li&gt;&lt;li&gt;&lt;strong&gt;Integration&lt;/strong&gt;: Ensuring compatibility with existing smart devices and platforms.&lt;/li&gt;&lt;li&gt;&lt;strong&gt;Data Analysis&lt;/strong&gt;: Collecting and analyzing user behavior to optimize automation.&lt;/li&gt;&lt;li&gt;&lt;strong&gt;Customer Support&lt;/strong&gt;: Offering seamless technical assistance and setup guidance.&lt;/li&gt;&lt;li&gt;&lt;strong&gt;Marketing&lt;/strong&gt;: Promoting the product to tech-savvy homeowners and eco-conscious consumers.&lt;/li&gt;&lt;li&gt;&lt;strong&gt;Privacy/Security&lt;/strong&gt;: Ensuring the system complies with data privacy regulations and secures user data.&lt;/li&gt;&lt;/div&gt;&lt;/div&gt;&lt;div&gt;&lt;br&gt;&lt;/div&gt;" style="rounded=0;whiteSpace=wrap;html=1;shadow=0;labelBackgroundColor=none;strokeColor=#e8edf0;strokeWidth=5;fillColor=#ffffff;fontSize=12;fontColor=#2F5B7C;align=left;verticalAlign=top;spacing=30;" vertex="1" parent="1">
          <mxGeometry x="-1790" y="220" width="420" height="450" as="geometry" />
        </mxCell>
        <mxCell id="KXnW2y_FUQfaZxIY8iih-5" value="&lt;div&gt;&lt;font style=&quot;font-size: 26px&quot;&gt;Key Resources&lt;/font&gt;&lt;/div&gt;&lt;div&gt;&lt;br&gt;&lt;/div&gt;&lt;div&gt;What Key Resources do our Value Propositions require?&lt;/div&gt;&lt;div&gt;Our Distribution Channels? Customer Relationships?&lt;/div&gt;&lt;div&gt;Revenue Streams?&lt;/div&gt;&lt;div style=&quot;font-size: 10px&quot;&gt;&lt;font style=&quot;font-size: 10px&quot;&gt;&lt;br&gt;&lt;/font&gt;&lt;/div&gt;&lt;div style=&quot;font-size: 10px&quot;&gt;&lt;font style=&quot;font-size: 10px&quot;&gt;&lt;br&gt;&lt;/font&gt;&lt;/div&gt;&lt;div style=&quot;font-size: 10px&quot;&gt;&lt;font style=&quot;font-size: 10px&quot;&gt;&lt;li&gt;&lt;strong&gt;Technology&lt;/strong&gt;: AI algorithms, smart home APIs, and cloud infrastructure.&lt;/li&gt;&lt;li&gt;&lt;strong&gt;Human Resources&lt;/strong&gt;: Software engineers, AI/ML specialists, UI/UX designers, and marketing experts.&lt;/li&gt;&lt;li&gt;&lt;strong&gt;Hardware&lt;/strong&gt;: Raspberry Pi 3 (for initial deployment), sensors, and smart devices.&lt;/li&gt;&lt;li&gt;&lt;strong&gt;Intellectual Property&lt;/strong&gt;: Patents on the mood-based AI adaptation system.&lt;/li&gt;&lt;li&gt;&lt;strong&gt;Data&lt;/strong&gt;: User data to improve automation (protected under strict privacy protocols).&lt;/li&gt;&lt;/font&gt;&lt;/div&gt;" style="rounded=0;whiteSpace=wrap;html=1;shadow=0;labelBackgroundColor=none;strokeColor=#e8edf0;strokeWidth=5;fillColor=#ffffff;fontSize=12;fontColor=#2F5B7C;align=left;verticalAlign=top;spacing=30;" vertex="1" parent="1">
          <mxGeometry x="-1790" y="670" width="420" height="460" as="geometry" />
        </mxCell>
        <mxCell id="KXnW2y_FUQfaZxIY8iih-6" value="&lt;div style=&quot;font-size: 26px&quot;&gt;&lt;font style=&quot;font-size: 26px&quot;&gt;Value Propositions&lt;/font&gt;&lt;/div&gt;&lt;div&gt;&lt;br&gt;&lt;/div&gt;&lt;div&gt;What value do we deliver to the customer?&lt;/div&gt;&lt;div&gt;Which one of our customerâ€™s problems are we helping to solve?&lt;/div&gt;&lt;div&gt;What bundles of products and services are we offering to each Customer Segment?&lt;/div&gt;&lt;div&gt;Which customer needs are we satisfying?&lt;/div&gt;&lt;div&gt;&lt;br&gt;&lt;/div&gt;&lt;div style=&quot;font-size: 10px&quot;&gt;&lt;br&gt;&lt;/div&gt;&lt;div style=&quot;font-size: 10px&quot;&gt;&lt;font style=&quot;font-size: 10px&quot;&gt;&lt;li&gt;&lt;strong&gt;Personalized Home Automation&lt;/strong&gt;: Tailors home settings (lighting, temperature, etc.) based on user mood and habits.&lt;/li&gt;&lt;li&gt;&lt;strong&gt;Convenience&lt;/strong&gt;: Reduces the need for manual adjustments, creating a seamless living experience.&lt;/li&gt;&lt;li&gt;&lt;strong&gt;Energy Efficiency&lt;/strong&gt;: Saves energy by optimizing device usage, leading to lower utility bills.&lt;/li&gt;&lt;li&gt;&lt;strong&gt;Security and Privacy&lt;/strong&gt;: Strong encryption and AI privacy features for safe data management.&lt;/li&gt;&lt;li&gt;&lt;strong&gt;Easy Integration&lt;/strong&gt;: Works with existing smart home ecosystems (Alexa, Google Home, etc.).&lt;/li&gt;&lt;li&gt;&lt;strong&gt;Adaptive AI&lt;/strong&gt;: Learns over time and becomes more intuitive, reducing the need for constant input.&lt;/li&gt;&lt;/font&gt;&lt;/div&gt;&lt;div style=&quot;font-size: 10px&quot;&gt;&lt;br&gt;&lt;/div&gt;" style="rounded=0;whiteSpace=wrap;html=1;shadow=0;labelBackgroundColor=none;strokeColor=#e8edf0;strokeWidth=5;fillColor=#ffffff;fontSize=12;fontColor=#2F5B7C;align=left;verticalAlign=top;spacing=30;" vertex="1" parent="1">
          <mxGeometry x="-1370" y="220" width="420" height="910" as="geometry" />
        </mxCell>
        <mxCell id="KXnW2y_FUQfaZxIY8iih-7" value="&lt;div&gt;&lt;font style=&quot;font-size: 26px&quot;&gt;Customer Segments&lt;/font&gt;&lt;/div&gt;&lt;div&gt;&lt;br&gt;&lt;/div&gt;&lt;div&gt;For whom are we creating value?&lt;/div&gt;&lt;div&gt;Who are our most important customers?&lt;/div&gt;&lt;div style=&quot;font-size: 10px&quot;&gt;&lt;br&gt;&lt;/div&gt;&lt;div style=&quot;font-size: 10px&quot;&gt;&lt;font style=&quot;font-size: 10px&quot;&gt;&lt;br&gt;&lt;/font&gt;&lt;/div&gt;&lt;div style=&quot;font-size: 10px&quot;&gt;&lt;font style=&quot;font-size: 10px&quot;&gt;&lt;li&gt;&lt;strong&gt;Tech Enthusiasts&lt;/strong&gt;: Early adopters who are always looking for the next big tech innovation.&lt;/li&gt;&lt;li&gt;&lt;strong&gt;Eco-conscious Homeowners&lt;/strong&gt;: People focused on sustainability and reducing energy consumption.&lt;/li&gt;&lt;li&gt;&lt;strong&gt;Families and Busy Professionals&lt;/strong&gt;: Individuals who value convenience and time-saving technology in their homes.&lt;/li&gt;&lt;li&gt;&lt;strong&gt;Elderly and Accessibility-focused&lt;/strong&gt;: Smart home systems that help with mobility and accessibility challenges.&lt;/li&gt;&lt;li&gt;&lt;strong&gt;Smart Home DIYers&lt;/strong&gt;: People who like to customize and upgrade their own home automation systems.&lt;/li&gt;&lt;/font&gt;&lt;/div&gt;" style="rounded=0;whiteSpace=wrap;html=1;shadow=0;labelBackgroundColor=none;strokeColor=#e8edf0;strokeWidth=5;fillColor=#ffffff;fontSize=12;fontColor=#2F5B7C;align=left;verticalAlign=top;spacing=30;" vertex="1" parent="1">
          <mxGeometry x="-530" y="220" width="420" height="910" as="geometry" />
        </mxCell>
        <mxCell id="KXnW2y_FUQfaZxIY8iih-8" value="&lt;div&gt;&lt;font style=&quot;font-size: 26px&quot;&gt;Channels&lt;/font&gt;&lt;/div&gt;&lt;div&gt;&lt;br&gt;&lt;/div&gt;&lt;div&gt;Through which Channels do our Customer Segments&lt;/div&gt;&lt;div&gt;want to be reached?&lt;/div&gt;&lt;div&gt;How are we reaching them now?&lt;/div&gt;&lt;div&gt;How are our Channels integrated?&lt;/div&gt;&lt;div&gt;Which ones work best?&lt;/div&gt;&lt;div&gt;Which ones are most cost-efficient?&lt;/div&gt;&lt;div&gt;How are we integrating them with customer routines?&lt;/div&gt;&lt;div&gt;&lt;br&gt;&lt;/div&gt;&lt;div style=&quot;font-size: 10px&quot;&gt;&lt;br&gt;&lt;/div&gt;&lt;div style=&quot;font-size: 10px&quot;&gt;&lt;li&gt;&lt;strong&gt;E-commerce Platforms&lt;/strong&gt;: Amazon, Google Store, Apple Store, and other tech retailers.&lt;/li&gt;&lt;li&gt;&lt;strong&gt;Tech Retailers&lt;/strong&gt;: Best Buy, Home Depot, or other electronics/home improvement stores.&lt;/li&gt;&lt;li&gt;&lt;strong&gt;Company Website/App&lt;/strong&gt;: Direct sales through the official website and app.&lt;/li&gt;&lt;li&gt;&lt;strong&gt;Social Media and Influencers&lt;/strong&gt;: Leverage tech influencers to promote the product.&lt;/li&gt;&lt;li&gt;&lt;strong&gt;Partnerships with Builders/Contractors&lt;/strong&gt;: Integrated as part of smart homes in new real estate developments.&lt;/li&gt;&lt;/div&gt;" style="rounded=0;whiteSpace=wrap;html=1;shadow=0;labelBackgroundColor=none;strokeColor=#e8edf0;strokeWidth=5;fillColor=#ffffff;fontSize=12;fontColor=#2F5B7C;align=left;verticalAlign=top;spacing=30;" vertex="1" parent="1">
          <mxGeometry x="-950" y="670" width="420" height="460" as="geometry" />
        </mxCell>
        <mxCell id="KXnW2y_FUQfaZxIY8iih-9" value="&lt;div style=&quot;font-size: 26px&quot;&gt;&lt;font style=&quot;font-size: 26px&quot;&gt;Cost Structure&lt;/font&gt;&lt;/div&gt;&lt;div&gt;&lt;br&gt;&lt;/div&gt;&lt;div&gt;What are the most important costs inherent in our business model?&lt;/div&gt;&lt;div&gt;Which Key Resources are most expensive?&lt;/div&gt;&lt;div&gt;Which Key Activities are most expensive?&lt;/div&gt;&lt;div&gt;&lt;br&gt;&lt;/div&gt;&lt;div style=&quot;font-size: 10px&quot;&gt;&lt;font style=&quot;font-size: 10px&quot;&gt;&lt;br&gt;&lt;/font&gt;&lt;/div&gt;&lt;div style=&quot;font-size: 10px&quot;&gt;&lt;font style=&quot;font-size: 10px&quot;&gt;&lt;li&gt;&lt;strong&gt;Product Development Costs&lt;/strong&gt;: Salaries for developers, designers, and AI specialists.&lt;/li&gt;&lt;li&gt;&lt;strong&gt;Hardware Costs&lt;/strong&gt;: Raspberry Pi 3 units, sensors, and other required devices.&lt;/li&gt;&lt;li&gt;&lt;strong&gt;Cloud Infrastructure&lt;/strong&gt;: Costs related to storing and processing data (AWS, Google Cloud).&lt;/li&gt;&lt;li&gt;&lt;strong&gt;Marketing and Sales&lt;/strong&gt;: Advertising, partnerships, and promotional activities.&lt;/li&gt;&lt;li&gt;&lt;strong&gt;Customer Support&lt;/strong&gt;: Maintaining a team to assist users.&lt;/li&gt;&lt;li&gt;&lt;strong&gt;Data Privacy and Security Compliance&lt;/strong&gt;: Ongoing costs to maintain GDPR, HIPAA, or other regulatory compliance.&lt;/li&gt;&lt;/font&gt;&lt;/div&gt;" style="rounded=0;whiteSpace=wrap;html=1;shadow=0;labelBackgroundColor=none;strokeColor=#e8edf0;strokeWidth=5;fillColor=#ffffff;fontSize=12;fontColor=#2F5B7C;align=left;verticalAlign=top;spacing=30;" vertex="1" parent="1">
          <mxGeometry x="-2210" y="1130" width="1050" height="350" as="geometry" />
        </mxCell>
        <mxCell id="KXnW2y_FUQfaZxIY8iih-10" value="&lt;div style=&quot;font-size: 26px&quot;&gt;&lt;font style=&quot;font-size: 26px&quot;&gt;Revenue Streams&lt;/font&gt;&lt;/div&gt;&lt;div&gt;&lt;br&gt;&lt;/div&gt;&lt;div&gt;For what value are our customers really willing to pay?&lt;/div&gt;&lt;div&gt;For what do they currently pay?&lt;/div&gt;&lt;div&gt;How are they currently paying?&lt;/div&gt;&lt;div&gt;How would they prefer to pay?&lt;/div&gt;&lt;div&gt;How much does each Revenue Stream contribute to overall revenues?&lt;/div&gt;&lt;div&gt;&lt;br&gt;&lt;/div&gt;&lt;div&gt;&lt;br&gt;&lt;/div&gt;" style="rounded=0;whiteSpace=wrap;html=1;shadow=0;labelBackgroundColor=none;strokeColor=#e8edf0;strokeWidth=5;fillColor=#ffffff;fontSize=12;fontColor=#2F5B7C;align=left;verticalAlign=top;spacing=30;" vertex="1" parent="1">
          <mxGeometry x="-1160" y="1130" width="1050" height="350" as="geometry" />
        </mxCell>
        <mxCell id="KXnW2y_FUQfaZxIY8iih-11" value="The Business Model Canvas&lt;br&gt;" style="text;html=1;resizable=0;points=[];autosize=1;align=left;verticalAlign=top;spacingTop=-4;fontSize=60;fontColor=#2F5B7C;" vertex="1" parent="1">
          <mxGeometry x="-2210" y="110" width="780" height="70" as="geometry" />
        </mxCell>
        <mxCell id="KXnW2y_FUQfaZxIY8iih-12" value="" style="html=1;verticalLabelPosition=bottom;labelBackgroundColor=#ffffff;verticalAlign=top;shadow=0;dashed=0;strokeWidth=4;shape=mxgraph.ios7.misc.check;strokeColor=#2F5B7C;fillColor=#ffffff;gradientColor=none;fontSize=12;fontColor=#2F5B7C;align=left;" vertex="1" parent="1">
          <mxGeometry x="-1410" y="252" width="20" height="16" as="geometry" />
        </mxCell>
        <mxCell id="KXnW2y_FUQfaZxIY8iih-13" value="" style="shape=mxgraph.signs.travel.present;html=1;fillColor=#2F5B7C;strokeColor=none;verticalLabelPosition=bottom;verticalAlign=top;align=center;shadow=0;labelBackgroundColor=none;fontSize=12;fontColor=#2F5B7C;" vertex="1" parent="1">
          <mxGeometry x="-1000" y="235" width="31" height="40" as="geometry" />
        </mxCell>
        <mxCell id="KXnW2y_FUQfaZxIY8iih-14" value="" style="html=1;verticalLabelPosition=bottom;labelBackgroundColor=#ffffff;verticalAlign=top;strokeWidth=3;strokeColor=none;fillColor=#2F5B7C;shadow=0;dashed=0;shape=mxgraph.ios7.icons.heart;fontSize=12;fontColor=#2F5B7C;align=left;" vertex="1" parent="1">
          <mxGeometry x="-594.9999999999997" y="242" width="41" height="36" as="geometry" />
        </mxCell>
        <mxCell id="KXnW2y_FUQfaZxIY8iih-15" value="&lt;div style=&quot;font-size: 10px&quot;&gt;&lt;br&gt;&lt;/div&gt;&lt;div style=&quot;font-size: 10px&quot;&gt;&lt;li&gt;&lt;strong&gt;Product Sales&lt;/strong&gt;: Revenue from selling the core smart home hub (Raspberry Pi or other hardware).&lt;/li&gt;&lt;li&gt;&lt;strong&gt;Subscription Services&lt;/strong&gt;: Monthly fee for advanced AI features and premium integrations.&lt;/li&gt;&lt;li&gt;&lt;strong&gt;Licensing Fees&lt;/strong&gt;: Licensing mood-based automation technology to other smart home manufacturers.&lt;/li&gt;&lt;li&gt;&lt;strong&gt;Energy Savings Partnerships&lt;/strong&gt;: Partnering with energy companies to offer rebates for smart energy-saving features.&lt;/li&gt;&lt;li&gt;&lt;strong&gt;Data Monetization&lt;/strong&gt;: Anonymized and privacy-compliant data sharing for energy-saving insights or home automation trends.&lt;/li&gt;&lt;/div&gt;" style="text;html=1;resizable=0;points=[];autosize=1;align=left;verticalAlign=top;spacingTop=-4;fontSize=10;fontColor=#2F5B7C;" vertex="1" parent="1">
          <mxGeometry x="-1130" y="1290" width="580" height="80" as="geometry" />
        </mxCell>
        <mxCell id="KXnW2y_FUQfaZxIY8iih-16" value="" style="shadow=0;dashed=0;html=1;strokeColor=none;labelPosition=center;verticalLabelPosition=bottom;verticalAlign=top;shape=mxgraph.mscae.cloud.data_factory;fillColor=#2F5B7C;labelBackgroundColor=none;fontSize=10;fontColor=#2F5B7C;align=left;" vertex="1" parent="1">
          <mxGeometry x="-1440" y="690" width="50" height="50" as="geometry" />
        </mxCell>
        <mxCell id="KXnW2y_FUQfaZxIY8iih-17" value="" style="shape=mxgraph.signs.transportation.truck_6;html=1;fillColor=#2F5B7C;strokeColor=none;verticalLabelPosition=bottom;verticalAlign=top;align=center;shadow=0;labelBackgroundColor=none;fontSize=10;fontColor=#2F5B7C;aspect=fixed;" vertex="1" parent="1">
          <mxGeometry x="-590" y="690" width="40" height="50" as="geometry" />
        </mxCell>
        <mxCell id="KXnW2y_FUQfaZxIY8iih-18" value="" style="shape=image;html=1;verticalAlign=top;verticalLabelPosition=bottom;labelBackgroundColor=#ffffff;imageAspect=0;aspect=fixed;image=https://cdn4.iconfinder.com/data/icons/evil-icons-user-interface/64/price-128.png;shadow=0;strokeColor=#e8edf0;strokeWidth=3;fillColor=#2F5B7C;gradientColor=none;fontSize=10;fontColor=#2F5B7C;align=left;" vertex="1" parent="1">
          <mxGeometry x="-1226" y="1140" width="58" height="58" as="geometry" />
        </mxCell>
        <mxCell id="KXnW2y_FUQfaZxIY8iih-19" value="" style="dashed=0;html=1;shape=mxgraph.aws3.checklist_cost;fillColor=#2F5B7C;gradientColor=none;shadow=0;labelBackgroundColor=none;strokeColor=none;strokeWidth=3;fontSize=10;fontColor=#2F5B7C;align=left;" vertex="1" parent="1">
          <mxGeometry x="-203.5" y="1131.5" width="67.5" height="75" as="geometry" />
        </mxCell>
        <mxCell id="KXnW2y_FUQfaZxIY8iih-20" value="" style="shadow=0;dashed=0;html=1;strokeColor=none;fillColor=#2F5B7C;labelPosition=center;verticalLabelPosition=bottom;verticalAlign=top;outlineConnect=0;shape=mxgraph.office.concepts.link;labelBackgroundColor=none;fontSize=10;fontColor=#000000;align=left;" vertex="1" parent="1">
          <mxGeometry x="-1871" y="241" width="61" height="21" as="geometry" />
        </mxCell>
        <mxCell id="KXnW2y_FUQfaZxIY8iih-21" value="" style="group" vertex="1" connectable="0" parent="1">
          <mxGeometry x="-203.5" y="245" width="69" height="50" as="geometry" />
        </mxCell>
        <mxCell id="KXnW2y_FUQfaZxIY8iih-22" value="" style="shadow=0;dashed=0;html=1;strokeColor=#FFFFFF;labelPosition=center;verticalLabelPosition=bottom;verticalAlign=top;outlineConnect=0;shape=mxgraph.office.users.user;fillColor=#2F5B7C;labelBackgroundColor=none;fontSize=10;fontColor=#000000;align=left;strokeWidth=2;" vertex="1" parent="KXnW2y_FUQfaZxIY8iih-21">
          <mxGeometry x="31" y="-5" width="46" height="50" as="geometry" />
        </mxCell>
        <mxCell id="KXnW2y_FUQfaZxIY8iih-23" value="" style="shadow=0;dashed=0;html=1;strokeColor=#FFFFFF;labelPosition=center;verticalLabelPosition=bottom;verticalAlign=top;outlineConnect=0;shape=mxgraph.office.users.user;fillColor=#2F5B7C;labelBackgroundColor=none;fontSize=10;fontColor=#000000;align=left;strokeWidth=2;" vertex="1" parent="KXnW2y_FUQfaZxIY8iih-21">
          <mxGeometry width="46" height="50" as="geometry" />
        </mxCell>
      </root>
    </mxGraphModel>
  </diagram>
</mxfile>
